<?xml version="1.0" encoding="utf-8"?>
<!-- Generator: Adobe Illustrator 10.0.3, SVG Export Plug-In . SVG Version: 3.0.0 Build 77)  -->
<!DOCTYPE svg PUBLIC "-//W3C//DTD SVG 1.0//EN"    "http://www.w3.org/TR/2001/REC-SVG-20010904/DTD/svg10.dtd" [
	<!ENTITY ns_flows "http://ns.adobe.com/Flows/1.0/">
	<!ENTITY ns_extend "http://ns.adobe.com/Extensibility/1.0/">
	<!ENTITY ns_ai "http://ns.adobe.com/AdobeIllustrator/10.0/">
	<!ENTITY ns_graphs "http://ns.adobe.com/Graphs/1.0/">
	<!ENTITY ns_vars "http://ns.adobe.com/Variables/1.0/">
	<!ENTITY ns_imrep "http://ns.adobe.com/ImageReplacement/1.0/">
	<!ENTITY ns_sfw "http://ns.adobe.com/SaveForWeb/1.0/">
	<!ENTITY ns_custom "http://ns.adobe.com/GenericCustomNamespace/1.0/">
	<!ENTITY ns_adobe_xpath "http://ns.adobe.com/XPath/1.0/">
	<!ENTITY ns_svg "http://www.w3.org/2000/svg">
	<!ENTITY ns_xlink "http://www.w3.org/1999/xlink">
]>
<svg 
	 xmlns:x="&ns_extend;" xmlns:i="&ns_ai;" xmlns:graph="&ns_graphs;" i:viewOrigin="272.0093 460.0366" i:rulerOrigin="0 0" i:pageBounds="0 841.8896 595.2754 0"
	 xmlns="&ns_svg;" xmlns:xlink="&ns_xlink;" xmlns:a="http://ns.adobe.com/AdobeSVGViewerExtensions/3.0/"
	 width="128.054" height="81.588" viewBox="0 0 128.054 81.588" overflow="visible" enable-background="new 0 0 128.054 81.588"
	 xml:space="preserve">
	<metadata>
		<variableSets  xmlns="&ns_vars;">
			<variableSet  varSetName="binding1" locked="none">
				<variables></variables>
				<v:sampleDataSets  xmlns="&ns_custom;" xmlns:v="&ns_vars;"></v:sampleDataSets>
			</variableSet>
		</variableSets>
		<sfw  xmlns="&ns_sfw;">
			<slices></slices>
			<sliceSourceBounds  y="378.448" x="272.009" width="128.054" height="81.588" bottomLeftOrigin="true"></sliceSourceBounds>
		</sfw>
	</metadata>
	<g id="Layer_1" i:layer="yes" i:dimmedPercent="50" i:rgbTrio="#4F008000FFFF">
		<g>
			<g i:knockout="Off">
				<path i:knockout="Off" fill="#ACADB0" d="M18.347,40.782L0,0.219h16.579l8.4,20.792c0.663,1.818,1.105,3.522,1.547,5.34h0.442
					c0.441-1.818,0.884-3.522,1.547-5.34l8.4-20.792h16.578L35.147,40.782l18.347,40.562H36.916l-8.4-20.793
					c-0.663-1.817-1.105-3.521-1.547-5.34h-0.442c-0.442,1.818-0.884,3.522-1.547,5.34l-8.4,20.793H0L18.347,40.782z"/>
			</g>
			<g i:knockout="Off">
				<path i:knockout="Off" fill="#9B000F" d="M45.221,8.385h-8.386V0h8.386V8.385z M45.221,81.588
					c-2.267-0.113-4.306-1.02-5.893-2.493c-1.586-1.473-2.493-3.626-2.493-5.893V16.091h8.386V81.588z"/>
				<path i:knockout="Off" fill="#9B000F" d="M53.606,16.091h33.542c4.646,0,8.386,3.739,8.386,8.385v56.432h-8.386V24.477h-8.385
					v56.432h-8.386V24.477h-8.386v56.432h-8.386V16.091z"/>
				<path i:knockout="Off" fill="#9B000F" d="M119.668,24.477h-8.385v19.831h8.385c4.646,0,8.386,3.739,8.386,8.386V69.01
					c0,6.912-5.666,12.578-12.578,12.578s-12.578-5.666-12.578-12.578v-4.873h8.386v8.386h8.385v-19.83h-8.385
					c-4.646,0-8.386-3.739-8.386-8.386V27.989c0-6.912,5.666-12.578,12.578-12.578s12.578,5.666,12.578,12.578v4.873h-8.386V24.477z
					"/>
			</g>
		</g>
	</g>
</svg>
